<svg width="293" height="300" viewBox="0 0 293 300" fill="none" xmlns="http://www.w3.org/2000/svg">
<ellipse cx="146.305" cy="150" rx="146.305" ry="150" fill="#C76C1B"/>
<ellipse cx="146.305" cy="143.35" rx="146.305" ry="143.35" fill="#EB9F0E"/>
<ellipse cx="146.305" cy="143.35" rx="146.305" ry="143.35" fill="url(#paint0_linear_0_1677)"/>
<circle cx="146.305" cy="146.305" r="112.315" fill="#BABFD4"/>
<ellipse cx="146.305" cy="152.217" rx="112.315" ry="106.404" fill="url(#paint1_linear_0_1677)"/>
<path d="M116.985 145.344L129.117 128.285C124.074 127.445 114.814 127.258 107.229 134.844C95.2723 146.8 90.43 172.63 89.4205 178.882L119.809 209.271C125.279 208.802 149.5 205.568 172.838 182.23C173.086 181.726 178.771 177.525 174.123 172.877C171.904 170.659 168.232 170.7 165.966 172.967C164.812 174.121 163.017 174.138 161.887 173.008C160.757 171.878 160.774 170.083 161.928 168.929L170.175 160.682C174.366 156.491 170.415 149.421 164.566 151.12L157.814 156.9C156.581 157.974 154.749 157.788 153.735 156.617C152.688 155.404 152.912 153.568 154.104 152.535C177.688 131.843 174.245 134.335 189.418 120.113C195.087 115.393 187.956 107.044 182.369 111.824L145.663 144.832C144.596 145.741 142.959 145.758 141.908 144.79C140.696 143.743 140.668 142.234 141.46 141.042L167.064 101.239C170.806 96.171 163.44 90.5421 159.499 95.6515L121.643 148.596C120.73 149.916 118.89 150.219 117.636 149.295C116.379 148.451 116.034 146.619 116.985 145.344Z" fill="#3B4262"/>
<defs>
<linearGradient id="paint0_linear_0_1677" x1="0" y1="0" x2="0" y2="286.699" gradientUnits="userSpaceOnUse">
<stop stop-color="white" stop-opacity="0.0966455"/>
<stop offset="1" stop-color="white" stop-opacity="0.01"/>
</linearGradient>
<linearGradient id="paint1_linear_0_1677" x1="256.759" y1="258.621" x2="256.759" y2="49.3401" gradientUnits="userSpaceOnUse">
<stop stop-color="#F3F3F3"/>
<stop offset="1" stop-color="#DADADA"/>
</linearGradient>
</defs>
</svg>
