<svg width="293" height="300" viewBox="0 0 293 300" fill="none" xmlns="http://www.w3.org/2000/svg">
<ellipse cx="146.305" cy="150" rx="146.305" ry="150" fill="#9D1634"/>
<ellipse cx="146.305" cy="143.35" rx="146.305" ry="143.35" fill="#DB2E4D"/>
<ellipse cx="146.305" cy="143.35" rx="146.305" ry="143.35" fill="url(#paint0_linear_0_1591)"/>
<circle cx="146.306" cy="146.306" r="112.315" fill="#BABFD4"/>
<ellipse cx="146.306" cy="152.217" rx="112.315" ry="106.404" fill="url(#paint1_linear_0_1591)"/>
<path d="M189.814 130.175C188.519 113.766 170.171 115.441 170.171 115.441C162.427 101.729 150.329 111.661 150.329 111.661C141.035 98.222 129.381 110.675 129.381 110.675C109.289 108.499 110.068 124.999 110.068 124.999C109.595 130.244 112.9 146.472 112.9 146.472C109.919 137.119 103.453 144.883 103.453 144.883C95.5052 157.202 101.488 163.946 101.488 163.946C112.243 176.608 135.164 191.803 135.164 191.803C143.463 196.579 139.953 200.837 139.953 200.837L190.152 192.506L191.306 182.944C198.937 159.761 189.814 130.175 189.814 130.175Z" fill="#3B4262"/>
<defs>
<linearGradient id="paint0_linear_0_1591" x1="0" y1="0" x2="0" y2="286.699" gradientUnits="userSpaceOnUse">
<stop stop-color="white" stop-opacity="0.0966455"/>
<stop offset="1" stop-color="white" stop-opacity="0.01"/>
</linearGradient>
<linearGradient id="paint1_linear_0_1591" x1="256.759" y1="258.621" x2="256.759" y2="49.3403" gradientUnits="userSpaceOnUse">
<stop stop-color="#F3F3F3"/>
<stop offset="1" stop-color="#DADADA"/>
</linearGradient>
</defs>
</svg>
